<?xml version="1.0" encoding="UTF-8" standalone="no"?>
<!-- Created with Inkscape (http://www.inkscape.org/) -->

<svg
   width="100"
   height="85"
   viewBox="0 0 26.458334 22.489583"
   version="1.1"
   id="svg5"
   xml:space="preserve"
   inkscape:version="1.2.1 (9c6d41e, 2022-07-14)"
   sodipodi:docname="logo.svg"
   xmlns:inkscape="http://www.inkscape.org/namespaces/inkscape"
   xmlns:sodipodi="http://sodipodi.sourceforge.net/DTD/sodipodi-0.dtd"
   xmlns="http://www.w3.org/2000/svg"
   xmlns:svg="http://www.w3.org/2000/svg"><sodipodi:namedview
     id="namedview7"
     pagecolor="#ffffff"
     bordercolor="#666666"
     borderopacity="1.0"
     inkscape:showpageshadow="2"
     inkscape:pageopacity="0.0"
     inkscape:pagecheckerboard="0"
     inkscape:deskcolor="#d1d1d1"
     inkscape:document-units="px"
     showgrid="false"
     showguides="false"
     inkscape:zoom="1.8035943"
     inkscape:cx="19.12847"
     inkscape:cy="20.791815"
     inkscape:window-width="1542"
     inkscape:window-height="817"
     inkscape:window-x="0"
     inkscape:window-y="38"
     inkscape:window-maximized="0"
     inkscape:current-layer="layer1" /><defs
     id="defs2"><inkscape:path-effect
       effect="spiro"
       id="path-effect1300"
       is_visible="true"
       lpeversion="1" /><inkscape:path-effect
       effect="spiro"
       id="path-effect1294"
       is_visible="true"
       lpeversion="1" /><inkscape:path-effect
       effect="spiro"
       id="path-effect1255"
       is_visible="true"
       lpeversion="1" /><inkscape:path-effect
       effect="spiro"
       id="path-effect421"
       is_visible="true"
       lpeversion="1" /><inkscape:path-effect
       effect="spiro"
       id="path-effect1255-9"
       is_visible="true"
       lpeversion="1" /></defs><g
     inkscape:label="Layer 1"
     inkscape:groupmode="layer"
     id="layer1"><g
       id="g11728"
       transform="matrix(0.13098135,0,0,0.13098119,-2.333635,-5.8781731)"><path
         style="fill:#1a1a1a;stroke:none;stroke-width:0.264583px;stroke-linecap:butt;stroke-linejoin:miter;stroke-opacity:1"
         d="M 98.252342,208.08443 32.102067,169.89255 c -1.532219,-0.88463 -3.082128,-1.73825 -4.615738,-2.62046 -1.533609,-0.88222 -3.056096,-1.81928 -4.326848,-3.05032 -2.483845,-2.40622 -3.8293,-5.94072 -3.574251,-9.38953 v -43.24565 c -0.830357,-2.20705 -1.163831,-4.59945 -0.968675,-6.94945 0.377252,-4.54275 2.805175,-8.875709 6.482664,-11.569207 L 99.235284,52.861126 c 4.757496,-3.333417 10.279216,-5.56908 16.015716,-6.484521 8.03713,-1.282581 16.47302,0.07048 23.70588,3.802269 l 75.19186,45.263187 c 2.43713,2.635362 3.98613,6.078059 4.34185,9.649919 0.27875,2.79894 -0.16723,5.66698 -1.28273,8.24912 v 40.70454 c 0.19323,2.93435 -0.55404,5.92343 -2.10541,8.42163 -1.17408,1.89064 -2.78265,3.48341 -4.5502,4.83572 -1.76755,1.35231 -3.69858,2.47315 -5.62594,3.58591 l -65.58321,37.86448 c -6.48835,2.9163 -13.62612,4.37688 -20.73849,4.24366 -7.03334,-0.13174 -14.03329,-1.82138 -20.352268,-4.91261 z"
         id="path419"
         inkscape:path-effect="#path-effect421"
         inkscape:original-d="M 98.252342,208.08443 32.102067,169.89255 c -3.05679,-1.76484 -5.961459,-3.78025 -8.942586,-5.67078 -2.981127,-1.89052 -3.574251,-9.38953 -3.574251,-9.38953 v -43.24565 c 0,3.81964 -0.75435,-4.25894 -0.968675,-6.94945 -0.214329,-2.69051 6.482664,-11.569207 6.482664,-11.569207 L 99.235284,52.861126 c 0,0 10.454986,-4.754189 16.015716,-6.484521 5.56073,-1.73033 23.70588,3.802269 23.70588,3.802269 l 75.19186,45.263187 c 0,0 2.89483,5.748949 4.34185,9.649919 1.44701,3.90097 -1.28273,8.24912 -1.28273,8.24912 v 40.70454 c 0,0 -1.40334,5.61468 -2.10541,8.42163 -0.70207,2.80694 -10.17614,8.42163 -10.17614,8.42163 l -65.58321,37.86448 c 0,0 -13.82539,2.82937 -20.73849,4.24366 -6.91309,1.41429 -51.092497,-22.66049 -20.352268,-4.91261 z"
         sodipodi:nodetypes="ssscssccsccsccsccss" /><path
         id="path1290"
         style="opacity:1;fill:#ffffff;stroke:none;stroke-width:5.29167;stroke-linecap:butt;stroke-linejoin:miter;stroke-dasharray:none;stroke-opacity:1"
         d="m 120.34149,68.896053 c -0.43268,-0.0075 -0.86538,-0.0075 -1.29811,5.17e-4 -5.89679,0.109339 -11.76192,1.653048 -16.94884,4.460193 l -72.841545,42.055317 69.731661,40.26007 c 6.315144,2.74621 13.173414,4.237 20.058724,4.36046 7.03848,0.1262 14.09931,-1.17741 20.62871,-3.80855 l 70.61947,-40.77219 -71.44319,-41.248131 c -5.56117,-3.349722 -12.01671,-5.195808 -18.50688,-5.307686 z" /><path
         style="opacity:1;fill:none;stroke:#cccccc;stroke-width:5.29167;stroke-linecap:butt;stroke-linejoin:miter;stroke-dasharray:none;stroke-opacity:1"
         d="M 98.984662,155.67191 25.449869,113.21658 c -1.623605,-0.93603 -2.973653,-2.34032 -3.845033,-3.99952 -0.87138,-1.6592 -1.261193,-3.56778 -1.110215,-5.43579 0.237049,-2.93294 1.849355,-5.725532 4.27083,-7.39729 L 101.6583,51.989879 c 5.18692,-2.807148 11.05208,-4.350461 16.94888,-4.4598 6.92372,-0.12838 13.87311,1.733704 19.80503,5.306745 l 72.47233,41.841917 c 3.68042,2.723203 6.04724,7.145999 6.27124,11.718869 0.0769,1.56983 -0.13283,3.19576 -0.92132,4.55538 -0.39425,0.6798 -0.9198,1.28001 -1.52376,1.78281 -0.60396,0.5028 -1.2834,0.90558 -1.96397,1.29851 l -73.07449,42.18958 c -6.52942,2.63114 -13.59053,3.93478 -20.62901,3.80858 -6.88532,-0.12346 -13.74342,-1.61435 -20.058568,-4.36056 z"
         id="path1253"
         inkscape:path-effect="#path-effect1255-9"
         inkscape:original-d="m 98.984662,155.67191 c 0,0 -73.534793,-42.45533 -73.534793,-42.45533 0,0 -3.303234,-6.28994 -4.955248,-9.43531 -1.652013,-3.14537 4.27083,-7.39729 4.27083,-7.39729 0,0 76.892849,-44.394101 76.892849,-44.394101 0,0 11.29951,-2.972935 16.94888,-4.4598 5.64936,-1.486863 19.80503,5.306745 19.80503,5.306745 0,0 72.47233,41.841917 72.47233,41.841917 0,0 4.18109,7.812839 6.27124,11.718869 2.09015,3.90602 -4.40905,7.6367 -4.40905,7.6367 0,0 -73.07449,42.18958 -73.07449,42.18958 0,0 -13.75241,2.53932 -20.62901,3.80858 -6.8766,1.26926 -20.058568,-4.36056 -20.058568,-4.36056 z" /><ellipse
         style="font-variation-settings:normal;opacity:1;vector-effect:none;fill:#008000;fill-opacity:1;stroke:none;stroke-width:5.29167;stroke-linecap:butt;stroke-linejoin:miter;stroke-miterlimit:4;stroke-dasharray:none;stroke-dashoffset:0;stroke-opacity:1;-inkscape-stroke:none;stop-color:#000000;stop-opacity:1"
         id="path1303"
         cx="118.38914"
         cy="100.72888"
         rx="7.6309762"
         ry="4.5785856" /><path
         id="ellipse1381"
         style="font-variation-settings:normal;opacity:1;fill:#008000;fill-opacity:1;stroke:none;stroke-width:5.29168;stroke-linecap:butt;stroke-linejoin:miter;stroke-miterlimit:4;stroke-dasharray:none;stroke-dashoffset:0;stroke-opacity:1;stop-color:#000000;stop-opacity:1"
         d="m 118.38916,86.775065 a 23.256308,13.953785 0 0 0 -18.29811,5.351095 l 6.09317,3.881933 a 14.535192,8.7211151 0 0 1 12.20494,-4.000272 14.535192,8.7211151 0 0 1 12.23904,4.032312 l 6.22443,-3.782715 a 23.256308,13.953785 0 0 0 -18.46347,-5.482353 z" /><path
         id="ellipse1385"
         style="font-variation-settings:normal;opacity:1;fill:#008000;fill-opacity:1;stroke:none;stroke-width:5.29168;stroke-linecap:butt;stroke-linejoin:miter;stroke-miterlimit:4;stroke-dasharray:none;stroke-dashoffset:0;stroke-opacity:1;stop-color:#000000;stop-opacity:1"
         d="M 118.38916,79.580155 A 35.247841,21.148705 0 0 0 91.814551,86.85413 l 5.714896,3.640088 a 26.962782,16.17767 0 0 1 20.859713,-5.94279 26.962782,16.17767 0 0 1 21.08398,6.113322 l 5.85649,-3.558956 a 35.247841,21.148705 0 0 0 -26.94047,-7.525639 z" /><path
         style="fill:#808080;stroke:#808080;stroke-width:1.32292;stroke-linecap:round;stroke-linejoin:round;stroke-dasharray:none;stroke-opacity:1"
         d="m 106.91829,113.59253 v 2.39831 l -32.295866,18.47129 -32.569105,-19.37007 -0.113258,-3.00875 z"
         id="path1457"
         sodipodi:nodetypes="cccccc" /><path
         style="fill:#b3b3b3;stroke:#b3b3b3;stroke-width:1.32292;stroke-linecap:round;stroke-linejoin:round;stroke-dasharray:none;stroke-opacity:1;paint-order:stroke fill markers"
         d="M 75.655677,131.68885 41.744026,112.10994 73.045036,94.0383 107.04256,113.66678 Z"
         id="path1455" /><path
         style="fill:#66caff;fill-opacity:1;stroke:#66caff;stroke-width:0.529167;stroke-linecap:butt;stroke-linejoin:round;stroke-dasharray:none;stroke-opacity:1"
         d="M 74.632832,129.13981 45.713116,111.76543 73.202963,96.074084 102.53799,112.88666 Z"
         id="path1453"
         sodipodi:nodetypes="ccccc" /><path
         style="fill:#ffdf01;fill-opacity:1;stroke:#ffdf01;stroke-width:1.32292;stroke-linecap:round;stroke-linejoin:round;stroke-dasharray:none;stroke-opacity:1"
         d="m 191.41623,111.39206 v 2.39831 l -32.29587,18.47129 -28.16817,-16.43611 -0.11326,-3.00875 z"
         id="path4329"
         sodipodi:nodetypes="cccccc" /><path
         style="fill:#ccb300;fill-opacity:1;stroke:#ccb200;stroke-width:1.32292;stroke-linecap:round;stroke-linejoin:round;stroke-dasharray:none;stroke-opacity:1;paint-order:stroke fill markers"
         d="m 160.15361,129.48838 -29.29585,-16.69731 1.26212,-3.55688 12.0586,-7.45822 5.42981,-0.2405 12.11039,-7.109428 21.40503,13.540618 5.30486,3.91457 z"
         id="path4331"
         sodipodi:nodetypes="ccccccccc" /><circle
         id="path4388"
         style="fill:#f5ea0b;stroke:#cccccc;stroke-width:0.264583"
         cx="159.75391"
         cy="129.09407"
         r="0.039080009" /><circle
         id="path4390"
         style="fill:#f5ea0b;stroke:#cccccc;stroke-width:0.264583"
         cx="134.08179"
         cy="111.49033"
         r="0.039080009" /><path
         style="fill:#f9f9f9;stroke:none;stroke-width:0.264583px;stroke-linecap:butt;stroke-linejoin:miter;stroke-opacity:1"
         d="m 167.42186,102.48624 -7.6761,-5.808936 -26.28573,15.176076 22.24186,12.84135 z"
         id="path7271" /><path
         style="fill:#ffdf01;fill-opacity:1;stroke:none;stroke-width:0.264583px;stroke-linecap:butt;stroke-linejoin:miter;stroke-opacity:1"
         d="m 160.46223,130.49292 -23.83012,-19.17446 32.44141,-18.730057 23.28289,18.633707 z"
         id="path4392"
         sodipodi:nodetypes="ccccc" /><path
         style="fill:none;stroke:#4d4d4d;stroke-width:2.64583;stroke-linecap:round;stroke-linejoin:round;stroke-dasharray:none;stroke-opacity:1"
         d="m 109.95487,143.56372 c 0,0 -15.163074,-5.37021 -2.90447,-12.44773 12.25861,-7.07751 24.48052,2.48956 24.48052,2.48956"
         id="path10909"
         sodipodi:nodetypes="csc" /><path
         style="fill:#008080;fill-opacity:1;stroke:#008080;stroke-width:0.529166;stroke-linecap:butt;stroke-linejoin:round;stroke-dasharray:none;stroke-opacity:1"
         d="m 131.76312,139.92785 -10.53382,-6.25528 10.01299,-5.64934 10.6851,6.05301 z"
         id="path10179"
         sodipodi:nodetypes="ccccc" /><path
         style="fill:#ff0000;fill-opacity:1;stroke:#ff0000;stroke-width:0.529166;stroke-linecap:butt;stroke-linejoin:round;stroke-dasharray:none;stroke-opacity:1"
         d="m 111.01692,151.54572 -10.53382,-6.25528 10.01299,-5.64934 10.6851,6.05301 z"
         id="path10181"
         sodipodi:nodetypes="ccccc" /></g></g></svg>
